0
SECTION
2
HEADER
0
ENDSEC
0
SECTION
2
ENTITIES
0
LINE
8
web
62
7
10
0.000000
20
-0.284000
30
0.000000
11
0.600000
21
-0.304000
31
0.000000
0
LINE
8
web
62
7
10
0.600000
20
-0.304000
30
0.000000
11
0.600000
21
-0.152000
31
0.000000
0
LINE
8
web
62
7
10
0.600000
20
-0.152000
30
0.000000
11
0.000000
21
-0.142000
31
0.000000
0
LINE
8
web
62
7
10
0.000000
20
-0.142000
30
0.000000
11
0.000000
21
-0.284000
31
0.000000
0
LINE
8
web
62
7
10
0.000000
20
-0.142000
30
0.000000
11
0.600000
21
-0.152000
31
0.000000
0
LINE
8
web
62
7
10
0.600000
20
-0.152000
30
0.000000
11
0.600000
21
0.000000
31
0.000000
0
LINE
8
web
62
7
10
0.600000
20
0.000000
30
0.000000
11
0.000000
21
0.000000
31
0.000000
0
LINE
8
web
62
7
10
0.000000
20
0.000000
30
0.000000
11
0.000000
21
-0.142000
31
0.000000
0
LINE
8
web
62
7
10
0.000000
20
0.000000
30
0.000000
11
0.600000
21
0.000000
31
0.000000
0
LINE
8
web
62
7
10
0.600000
20
0.000000
30
0.000000
11
0.600000
21
0.152000
31
0.000000
0
LINE
8
web
62
7
10
0.600000
20
0.152000
30
0.000000
11
0.000000
21
0.142000
31
0.000000
0
LINE
8
web
62
7
10
0.000000
20
0.142000
30
0.000000
11
0.000000
21
0.000000
31
0.000000
0
LINE
8
web
62
7
10
0.000000
20
0.142000
30
0.000000
11
0.600000
21
0.152000
31
0.000000
0
LINE
8
web
62
7
10
0.600000
20
0.152000
30
0.000000
11
0.600000
21
0.304000
31
0.000000
0
LINE
8
web
62
7
10
0.600000
20
0.304000
30
0.000000
11
0.000000
21
0.284000
31
0.000000
0
LINE
8
web
62
7
10
0.000000
20
0.284000
30
0.000000
11
0.000000
21
0.142000
31
0.000000
0
LINE
8
web
62
7
10
0.600000
20
-0.304000
30
0.000000
11
1.200000
21
-0.324000
31
0.000000
0
LINE
8
web
62
7
10
1.200000
20
-0.324000
30
0.000000
11
1.200000
21
-0.162000
31
0.000000
0
LINE
8
web
62
7
10
1.200000
20
-0.162000
30
0.000000
11
0.600000
21
-0.152000
31
0.000000
0
LINE
8
web
62
7
10
0.600000
20
-0.152000
30
0.000000
11
0.600000
21
-0.304000
31
0.000000
0
LINE
8
web
62
7
10
0.600000
20
-0.152000
30
0.000000
11
1.200000
21
-0.162000
31
0.000000
0
LINE
8
web
62
7
10
1.200000
20
-0.162000
30
0.000000
11
1.200000
21
0.000000
31
0.000000
0
LINE
8
web
62
7
10
1.200000
20
0.000000
30
0.000000
11
0.600000
21
0.000000
31
0.000000
0
LINE
8
web
62
7
10
0.600000
20
0.000000
30
0.000000
11
0.600000
21
-0.152000
31
0.000000
0
LINE
8
web
62
7
10
0.600000
20
0.000000
30
0.000000
11
1.200000
21
0.000000
31
0.000000
0
LINE
8
web
62
7
10
1.200000
20
0.000000
30
0.000000
11
1.200000
21
0.162000
31
0.000000
0
LINE
8
web
62
7
10
1.200000
20
0.162000
30
0.000000
11
0.600000
21
0.152000
31
0.000000
0
LINE
8
web
62
7
10
0.600000
20
0.152000
30
0.000000
11
0.600000
21
0.000000
31
0.000000
0
LINE
8
web
62
7
10
0.600000
20
0.152000
30
0.000000
11
1.200000
21
0.162000
31
0.000000
0
LINE
8
web
62
7
10
1.200000
20
0.162000
30
0.000000
11
1.200000
21
0.324000
31
0.000000
0
LINE
8
web
62
7
10
1.200000
20
0.324000
30
0.000000
11
0.600000
21
0.304000
31
0.000000
0
LINE
8
web
62
7
10
0.600000
20
0.304000
30
0.000000
11
0.600000
21
0.152000
31
0.000000
0
LINE
8
web
62
7
10
1.200000
20
-0.324000
30
0.000000
11
1.800000
21
-0.344000
31
0.000000
0
LINE
8
web
62
7
10
1.800000
20
-0.344000
30
0.000000
11
1.800000
21
-0.172000
31
0.000000
0
LINE
8
web
62
7
10
1.800000
20
-0.172000
30
0.000000
11
1.200000
21
-0.162000
31
0.000000
0
LINE
8
web
62
7
10
1.200000
20
-0.162000
30
0.000000
11
1.200000
21
-0.324000
31
0.000000
0
LINE
8
web
62
7
10
1.200000
20
-0.162000
30
0.000000
11
1.800000
21
-0.172000
31
0.000000
0
LINE
8
web
62
7
10
1.800000
20
-0.172000
30
0.000000
11
1.800000
21
0.000000
31
0.000000
0
LINE
8
web
62
7
10
1.800000
20
0.000000
30
0.000000
11
1.200000
21
0.000000
31
0.000000
0
LINE
8
web
62
7
10
1.200000
20
0.000000
30
0.000000
11
1.200000
21
-0.162000
31
0.000000
0
LINE
8
web
62
7
10
1.200000
20
0.000000
30
0.000000
11
1.800000
21
0.000000
31
0.000000
0
LINE
8
web
62
7
10
1.800000
20
0.000000
30
0.000000
11
1.800000
21
0.172000
31
0.000000
0
LINE
8
web
62
7
10
1.800000
20
0.172000
30
0.000000
11
1.200000
21
0.162000
31
0.000000
0
LINE
8
web
62
7
10
1.200000
20
0.162000
30
0.000000
11
1.200000
21
0.000000
31
0.000000
0
LINE
8
web
62
7
10
1.200000
20
0.162000
30
0.000000
11
1.800000
21
0.172000
31
0.000000
0
LINE
8
web
62
7
10
1.800000
20
0.172000
30
0.000000
11
1.800000
21
0.344000
31
0.000000
0
LINE
8
web
62
7
10
1.800000
20
0.344000
30
0.000000
11
1.200000
21
0.324000
31
0.000000
0
LINE
8
web
62
7
10
1.200000
20
0.324000
30
0.000000
11
1.200000
21
0.162000
31
0.000000
0
LINE
8
web
62
7
10
1.800000
20
-0.344000
30
0.000000
11
2.400000
21
-0.364000
31
0.000000
0
LINE
8
web
62
7
10
2.400000
20
-0.364000
30
0.000000
11
2.400000
21
-0.182000
31
0.000000
0
LINE
8
web
62
7
10
2.400000
20
-0.182000
30
0.000000
11
1.800000
21
-0.172000
31
0.000000
0
LINE
8
web
62
7
10
1.800000
20
-0.172000
30
0.000000
11
1.800000
21
-0.344000
31
0.000000
0
LINE
8
web
62
7
10
1.800000
20
-0.172000
30
0.000000
11
2.400000
21
-0.182000
31
0.000000
0
LINE
8
web
62
7
10
2.400000
20
-0.182000
30
0.000000
11
2.400000
21
0.000000
31
0.000000
0
LINE
8
web
62
7
10
2.400000
20
0.000000
30
0.000000
11
1.800000
21
0.000000
31
0.000000
0
LINE
8
web
62
7
10
1.800000
20
0.000000
30
0.000000
11
1.800000
21
-0.172000
31
0.000000
0
LINE
8
web
62
7
10
1.800000
20
0.000000
30
0.000000
11
2.400000
21
0.000000
31
0.000000
0
LINE
8
web
62
7
10
2.400000
20
0.000000
30
0.000000
11
2.400000
21
0.182000
31
0.000000
0
LINE
8
web
62
7
10
2.400000
20
0.182000
30
0.000000
11
1.800000
21
0.172000
31
0.000000
0
LINE
8
web
62
7
10
1.800000
20
0.172000
30
0.000000
11
1.800000
21
0.000000
31
0.000000
0
LINE
8
web
62
7
10
1.800000
20
0.172000
30
0.000000
11
2.400000
21
0.182000
31
0.000000
0
LINE
8
web
62
7
10
2.400000
20
0.182000
30
0.000000
11
2.400000
21
0.364000
31
0.000000
0
LINE
8
web
62
7
10
2.400000
20
0.364000
30
0.000000
11
1.800000
21
0.344000
31
0.000000
0
LINE
8
web
62
7
10
1.800000
20
0.344000
30
0.000000
11
1.800000
21
0.172000
31
0.000000
0
LINE
8
web
62
7
10
2.400000
20
-0.364000
30
0.000000
11
3.000000
21
-0.384000
31
0.000000
0
LINE
8
web
62
7
10
3.000000
20
-0.384000
30
0.000000
11
3.000000
21
-0.192000
31
0.000000
0
LINE
8
web
62
7
10
3.000000
20
-0.192000
30
0.000000
11
2.400000
21
-0.182000
31
0.000000
0
LINE
8
web
62
7
10
2.400000
20
-0.182000
30
0.000000
11
2.400000
21
-0.364000
31
0.000000
0
LINE
8
web
62
7
10
2.400000
20
-0.182000
30
0.000000
11
3.000000
21
-0.192000
31
0.000000
0
LINE
8
web
62
7
10
3.000000
20
-0.192000
30
0.000000
11
3.000000
21
0.000000
31
0.000000
0
LINE
8
web
62
7
10
3.000000
20
0.000000
30
0.000000
11
2.400000
21
0.000000
31
0.000000
0
LINE
8
web
62
7
10
2.400000
20
0.000000
30
0.000000
11
2.400000
21
-0.182000
31
0.000000
0
LINE
8
web
62
7
10
2.400000
20
0.000000
30
0.000000
11
3.000000
21
0.000000
31
0.000000
0
LINE
8
web
62
7
10
3.000000
20
0.000000
30
0.000000
11
3.000000
21
0.192000
31
0.000000
0
LINE
8
web
62
7
10
3.000000
20
0.192000
30
0.000000
11
2.400000
21
0.182000
31
0.000000
0
LINE
8
web
62
7
10
2.400000
20
0.182000
30
0.000000
11
2.400000
21
0.000000
31
0.000000
0
LINE
8
web
62
7
10
2.400000
20
0.182000
30
0.000000
11
3.000000
21
0.192000
31
0.000000
0
LINE
8
web
62
7
10
3.000000
20
0.192000
30
0.000000
11
3.000000
21
0.384000
31
0.000000
0
LINE
8
web
62
7
10
3.000000
20
0.384000
30
0.000000
11
2.400000
21
0.364000
31
0.000000
0
LINE
8
web
62
7
10
2.400000
20
0.364000
30
0.000000
11
2.400000
21
0.182000
31
0.000000
0
LINE
8
web
62
7
10
3.000000
20
-0.384000
30
0.000000
11
3.600000
21
-0.404000
31
0.000000
0
LINE
8
web
62
7
10
3.600000
20
-0.404000
30
0.000000
11
3.600000
21
-0.202000
31
0.000000
0
LINE
8
web
62
7
10
3.600000
20
-0.202000
30
0.000000
11
3.000000
21
-0.192000
31
0.000000
0
LINE
8
web
62
7
10
3.000000
20
-0.192000
30
0.000000
11
3.000000
21
-0.384000
31
0.000000
0
LINE
8
web
62
7
10
3.000000
20
-0.192000
30
0.000000
11
3.600000
21
-0.202000
31
0.000000
0
LINE
8
web
62
7
10
3.600000
20
-0.202000
30
0.000000
11
3.600000
21
0.000000
31
0.000000
0
LINE
8
web
62
7
10
3.600000
20
0.000000
30
0.000000
11
3.000000
21
0.000000
31
0.000000
0
LINE
8
web
62
7
10
3.000000
20
0.000000
30
0.000000
11
3.000000
21
-0.192000
31
0.000000
0
LINE
8
web
62
7
10
3.000000
20
0.000000
30
0.000000
11
3.600000
21
0.000000
31
0.000000
0
LINE
8
web
62
7
10
3.600000
20
0.000000
30
0.000000
11
3.600000
21
0.202000
31
0.000000
0
LINE
8
web
62
7
10
3.600000
20
0.202000
30
0.000000
11
3.000000
21
0.192000
31
0.000000
0
LINE
8
web
62
7
10
3.000000
20
0.192000
30
0.000000
11
3.000000
21
0.000000
31
0.000000
0
LINE
8
web
62
7
10
3.000000
20
0.192000
30
0.000000
11
3.600000
21
0.202000
31
0.000000
0
LINE
8
web
62
7
10
3.600000
20
0.202000
30
0.000000
11
3.600000
21
0.404000
31
0.000000
0
LINE
8
web
62
7
10
3.600000
20
0.404000
30
0.000000
11
3.000000
21
0.384000
31
0.000000
0
LINE
8
web
62
7
10
3.000000
20
0.384000
30
0.000000
11
3.000000
21
0.192000
31
0.000000
0
LINE
8
web
62
7
10
3.600000
20
-0.404000
30
0.000000
11
4.200000
21
-0.424000
31
0.000000
0
LINE
8
web
62
7
10
4.200000
20
-0.424000
30
0.000000
11
4.200000
21
-0.212000
31
0.000000
0
LINE
8
web
62
7
10
4.200000
20
-0.212000
30
0.000000
11
3.600000
21
-0.202000
31
0.000000
0
LINE
8
web
62
7
10
3.600000
20
-0.202000
30
0.000000
11
3.600000
21
-0.404000
31
0.000000
0
LINE
8
web
62
7
10
3.600000
20
-0.202000
30
0.000000
11
4.200000
21
-0.212000
31
0.000000
0
LINE
8
web
62
7
10
4.200000
20
-0.212000
30
0.000000
11
4.200000
21
0.000000
31
0.000000
0
LINE
8
web
62
7
10
4.200000
20
0.000000
30
0.000000
11
3.600000
21
0.000000
31
0.000000
0
LINE
8
web
62
7
10
3.600000
20
0.000000
30
0.000000
11
3.600000
21
-0.202000
31
0.000000
0
LINE
8
web
62
7
10
3.600000
20
0.000000
30
0.000000
11
4.200000
21
0.000000
31
0.000000
0
LINE
8
web
62
7
10
4.200000
20
0.000000
30
0.000000
11
4.200000
21
0.212000
31
0.000000
0
LINE
8
web
62
7
10
4.200000
20
0.212000
30
0.000000
11
3.600000
21
0.202000
31
0.000000
0
LINE
8
web
62
7
10
3.600000
20
0.202000
30
0.000000
11
3.600000
21
0.000000
31
0.000000
0
LINE
8
web
62
7
10
3.600000
20
0.202000
30
0.000000
11
4.200000
21
0.212000
31
0.000000
0
LINE
8
web
62
7
10
4.200000
20
0.212000
30
0.000000
11
4.200000
21
0.424000
31
0.000000
0
LINE
8
web
62
7
10
4.200000
20
0.424000
30
0.000000
11
3.600000
21
0.404000
31
0.000000
0
LINE
8
web
62
7
10
3.600000
20
0.404000
30
0.000000
11
3.600000
21
0.202000
31
0.000000
0
LINE
8
web
62
7
10
4.200000
20
-0.424000
30
0.000000
11
4.800000
21
-0.444000
31
0.000000
0
LINE
8
web
62
7
10
4.800000
20
-0.444000
30
0.000000
11
4.800000
21
-0.222000
31
0.000000
0
LINE
8
web
62
7
10
4.800000
20
-0.222000
30
0.000000
11
4.200000
21
-0.212000
31
0.000000
0
LINE
8
web
62
7
10
4.200000
20
-0.212000
30
0.000000
11
4.200000
21
-0.424000
31
0.000000
0
LINE
8
web
62
7
10
4.200000
20
-0.212000
30
0.000000
11
4.800000
21
-0.222000
31
0.000000
0
LINE
8
web
62
7
10
4.800000
20
-0.222000
30
0.000000
11
4.800000
21
0.000000
31
0.000000
0
LINE
8
web
62
7
10
4.800000
20
0.000000
30
0.000000
11
4.200000
21
0.000000
31
0.000000
0
LINE
8
web
62
7
10
4.200000
20
0.000000
30
0.000000
11
4.200000
21
-0.212000
31
0.000000
0
LINE
8
web
62
7
10
4.200000
20
0.000000
30
0.000000
11
4.800000
21
0.000000
31
0.000000
0
LINE
8
web
62
7
10
4.800000
20
0.000000
30
0.000000
11
4.800000
21
0.222000
31
0.000000
0
LINE
8
web
62
7
10
4.800000
20
0.222000
30
0.000000
11
4.200000
21
0.212000
31
0.000000
0
LINE
8
web
62
7
10
4.200000
20
0.212000
30
0.000000
11
4.200000
21
0.000000
31
0.000000
0
LINE
8
web
62
7
10
4.200000
20
0.212000
30
0.000000
11
4.800000
21
0.222000
31
0.000000
0
LINE
8
web
62
7
10
4.800000
20
0.222000
30
0.000000
11
4.800000
21
0.444000
31
0.000000
0
LINE
8
web
62
7
10
4.800000
20
0.444000
30
0.000000
11
4.200000
21
0.424000
31
0.000000
0
LINE
8
web
62
7
10
4.200000
20
0.424000
30
0.000000
11
4.200000
21
0.212000
31
0.000000
0
LINE
8
web
62
7
10
4.800000
20
-0.444000
30
0.000000
11
5.400000
21
-0.464000
31
0.000000
0
LINE
8
web
62
7
10
5.400000
20
-0.464000
30
0.000000
11
5.400000
21
-0.232000
31
0.000000
0
LINE
8
web
62
7
10
5.400000
20
-0.232000
30
0.000000
11
4.800000
21
-0.222000
31
0.000000
0
LINE
8
web
62
7
10
4.800000
20
-0.222000
30
0.000000
11
4.800000
21
-0.444000
31
0.000000
0
LINE
8
web
62
7
10
4.800000
20
-0.222000
30
0.000000
11
5.400000
21
-0.232000
31
0.000000
0
LINE
8
web
62
7
10
5.400000
20
-0.232000
30
0.000000
11
5.400000
21
0.000000
31
0.000000
0
LINE
8
web
62
7
10
5.400000
20
0.000000
30
0.000000
11
4.800000
21
0.000000
31
0.000000
0
LINE
8
web
62
7
10
4.800000
20
0.000000
30
0.000000
11
4.800000
21
-0.222000
31
0.000000
0
LINE
8
web
62
7
10
4.800000
20
0.000000
30
0.000000
11
5.400000
21
0.000000
31
0.000000
0
LINE
8
web
62
7
10
5.400000
20
0.000000
30
0.000000
11
5.400000
21
0.232000
31
0.000000
0
LINE
8
web
62
7
10
5.400000
20
0.232000
30
0.000000
11
4.800000
21
0.222000
31
0.000000
0
LINE
8
web
62
7
10
4.800000
20
0.222000
30
0.000000
11
4.800000
21
0.000000
31
0.000000
0
LINE
8
web
62
7
10
4.800000
20
0.222000
30
0.000000
11
5.400000
21
0.232000
31
0.000000
0
LINE
8
web
62
7
10
5.400000
20
0.232000
30
0.000000
11
5.400000
21
0.464000
31
0.000000
0
LINE
8
web
62
7
10
5.400000
20
0.464000
30
0.000000
11
4.800000
21
0.444000
31
0.000000
0
LINE
8
web
62
7
10
4.800000
20
0.444000
30
0.000000
11
4.800000
21
0.222000
31
0.000000
0
LINE
8
web
62
7
10
5.400000
20
-0.464000
30
0.000000
11
6.000000
21
-0.484000
31
0.000000
0
LINE
8
web
62
7
10
6.000000
20
-0.484000
30
0.000000
11
6.000000
21
-0.242000
31
0.000000
0
LINE
8
web
62
7
10
6.000000
20
-0.242000
30
0.000000
11
5.400000
21
-0.232000
31
0.000000
0
LINE
8
web
62
7
10
5.400000
20
-0.232000
30
0.000000
11
5.400000
21
-0.464000
31
0.000000
0
LINE
8
web
62
7
10
5.400000
20
-0.232000
30
0.000000
11
6.000000
21
-0.242000
31
0.000000
0
LINE
8
web
62
7
10
6.000000
20
-0.242000
30
0.000000
11
6.000000
21
0.000000
31
0.000000
0
LINE
8
web
62
7
10
6.000000
20
0.000000
30
0.000000
11
5.400000
21
0.000000
31
0.000000
0
LINE
8
web
62
7
10
5.400000
20
0.000000
30
0.000000
11
5.400000
21
-0.232000
31
0.000000
0
LINE
8
web
62
7
10
5.400000
20
0.000000
30
0.000000
11
6.000000
21
0.000000
31
0.000000
0
LINE
8
web
62
7
10
6.000000
20
0.000000
30
0.000000
11
6.000000
21
0.242000
31
0.000000
0
LINE
8
web
62
7
10
6.000000
20
0.242000
30
0.000000
11
5.400000
21
0.232000
31
0.000000
0
LINE
8
web
62
7
10
5.400000
20
0.232000
30
0.000000
11
5.400000
21
0.000000
31
0.000000
0
LINE
8
web
62
7
10
5.400000
20
0.232000
30
0.000000
11
6.000000
21
0.242000
31
0.000000
0
LINE
8
web
62
7
10
6.000000
20
0.242000
30
0.000000
11
6.000000
21
0.484000
31
0.000000
0
LINE
8
web
62
7
10
6.000000
20
0.484000
30
0.000000
11
5.400000
21
0.464000
31
0.000000
0
LINE
8
web
62
7
10
5.400000
20
0.464000
30
0.000000
11
5.400000
21
0.232000
31
0.000000
0
LINE
8
top_flange
62
7
10
0.000000
20
0.284000
30
0.000000
11
0.600000
21
0.304000
31
0.000000
0
LINE
8
top_flange
62
7
10
0.600000
20
0.304000
30
0.000000
11
0.600000
21
0.320000
31
0.000000
0
LINE
8
top_flange
62
7
10
0.600000
20
0.320000
30
0.000000
11
0.000000
21
0.300000
31
0.000000
0
LINE
8
top_flange
62
7
10
0.000000
20
0.300000
30
0.000000
11
0.000000
21
0.284000
31
0.000000
0
LINE
8
top_flange
62
7
10
0.600000
20
0.304000
30
0.000000
11
1.200000
21
0.324000
31
0.000000
0
LINE
8
top_flange
62
7
10
1.200000
20
0.324000
30
0.000000
11
1.200000
21
0.340000
31
0.000000
0
LINE
8
top_flange
62
7
10
1.200000
20
0.340000
30
0.000000
11
0.600000
21
0.320000
31
0.000000
0
LINE
8
top_flange
62
7
10
0.600000
20
0.320000
30
0.000000
11
0.600000
21
0.304000
31
0.000000
0
LINE
8
top_flange
62
7
10
1.200000
20
0.324000
30
0.000000
11
1.800000
21
0.344000
31
0.000000
0
LINE
8
top_flange
62
7
10
1.800000
20
0.344000
30
0.000000
11
1.800000
21
0.360000
31
0.000000
0
LINE
8
top_flange
62
7
10
1.800000
20
0.360000
30
0.000000
11
1.200000
21
0.340000
31
0.000000
0
LINE
8
top_flange
62
7
10
1.200000
20
0.340000
30
0.000000
11
1.200000
21
0.324000
31
0.000000
0
LINE
8
top_flange
62
7
10
1.800000
20
0.344000
30
0.000000
11
2.400000
21
0.364000
31
0.000000
0
LINE
8
top_flange
62
7
10
2.400000
20
0.364000
30
0.000000
11
2.400000
21
0.380000
31
0.000000
0
LINE
8
top_flange
62
7
10
2.400000
20
0.380000
30
0.000000
11
1.800000
21
0.360000
31
0.000000
0
LINE
8
top_flange
62
7
10
1.800000
20
0.360000
30
0.000000
11
1.800000
21
0.344000
31
0.000000
0
LINE
8
top_flange
62
7
10
2.400000
20
0.364000
30
0.000000
11
3.000000
21
0.384000
31
0.000000
0
LINE
8
top_flange
62
7
10
3.000000
20
0.384000
30
0.000000
11
3.000000
21
0.400000
31
0.000000
0
LINE
8
top_flange
62
7
10
3.000000
20
0.400000
30
0.000000
11
2.400000
21
0.380000
31
0.000000
0
LINE
8
top_flange
62
7
10
2.400000
20
0.380000
30
0.000000
11
2.400000
21
0.364000
31
0.000000
0
LINE
8
top_flange
62
7
10
3.000000
20
0.384000
30
0.000000
11
3.600000
21
0.404000
31
0.000000
0
LINE
8
top_flange
62
7
10
3.600000
20
0.404000
30
0.000000
11
3.600000
21
0.420000
31
0.000000
0
LINE
8
top_flange
62
7
10
3.600000
20
0.420000
30
0.000000
11
3.000000
21
0.400000
31
0.000000
0
LINE
8
top_flange
62
7
10
3.000000
20
0.400000
30
0.000000
11
3.000000
21
0.384000
31
0.000000
0
LINE
8
top_flange
62
7
10
3.600000
20
0.404000
30
0.000000
11
4.200000
21
0.424000
31
0.000000
0
LINE
8
top_flange
62
7
10
4.200000
20
0.424000
30
0.000000
11
4.200000
21
0.440000
31
0.000000
0
LINE
8
top_flange
62
7
10
4.200000
20
0.440000
30
0.000000
11
3.600000
21
0.420000
31
0.000000
0
LINE
8
top_flange
62
7
10
3.600000
20
0.420000
30
0.000000
11
3.600000
21
0.404000
31
0.000000
0
LINE
8
top_flange
62
7
10
4.200000
20
0.424000
30
0.000000
11
4.800000
21
0.444000
31
0.000000
0
LINE
8
top_flange
62
7
10
4.800000
20
0.444000
30
0.000000
11
4.800000
21
0.460000
31
0.000000
0
LINE
8
top_flange
62
7
10
4.800000
20
0.460000
30
0.000000
11
4.200000
21
0.440000
31
0.000000
0
LINE
8
top_flange
62
7
10
4.200000
20
0.440000
30
0.000000
11
4.200000
21
0.424000
31
0.000000
0
LINE
8
top_flange
62
7
10
4.800000
20
0.444000
30
0.000000
11
5.400000
21
0.464000
31
0.000000
0
LINE
8
top_flange
62
7
10
5.400000
20
0.464000
30
0.000000
11
5.400000
21
0.480000
31
0.000000
0
LINE
8
top_flange
62
7
10
5.400000
20
0.480000
30
0.000000
11
4.800000
21
0.460000
31
0.000000
0
LINE
8
top_flange
62
7
10
4.800000
20
0.460000
30
0.000000
11
4.800000
21
0.444000
31
0.000000
0
LINE
8
top_flange
62
7
10
5.400000
20
0.464000
30
0.000000
11
6.000000
21
0.484000
31
0.000000
0
LINE
8
top_flange
62
7
10
6.000000
20
0.484000
30
0.000000
11
6.000000
21
0.500000
31
0.000000
0
LINE
8
top_flange
62
7
10
6.000000
20
0.500000
30
0.000000
11
5.400000
21
0.480000
31
0.000000
0
LINE
8
top_flange
62
7
10
5.400000
20
0.480000
30
0.000000
11
5.400000
21
0.464000
31
0.000000
0
LINE
8
bot_flange
62
7
10
0.000000
20
-0.284000
30
0.000000
11
0.600000
21
-0.304000
31
0.000000
0
LINE
8
bot_flange
62
7
10
0.600000
20
-0.304000
30
0.000000
11
0.600000
21
-0.320000
31
0.000000
0
LINE
8
bot_flange
62
7
10
0.600000
20
-0.320000
30
0.000000
11
0.000000
21
-0.300000
31
0.000000
0
LINE
8
bot_flange
62
7
10
0.000000
20
-0.300000
30
0.000000
11
0.000000
21
-0.284000
31
0.000000
0
LINE
8
bot_flange
62
7
10
0.600000
20
-0.304000
30
0.000000
11
1.200000
21
-0.324000
31
0.000000
0
LINE
8
bot_flange
62
7
10
1.200000
20
-0.324000
30
0.000000
11
1.200000
21
-0.340000
31
0.000000
0
LINE
8
bot_flange
62
7
10
1.200000
20
-0.340000
30
0.000000
11
0.600000
21
-0.320000
31
0.000000
0
LINE
8
bot_flange
62
7
10
0.600000
20
-0.320000
30
0.000000
11
0.600000
21
-0.304000
31
0.000000
0
LINE
8
bot_flange
62
7
10
1.200000
20
-0.324000
30
0.000000
11
1.800000
21
-0.344000
31
0.000000
0
LINE
8
bot_flange
62
7
10
1.800000
20
-0.344000
30
0.000000
11
1.800000
21
-0.360000
31
0.000000
0
LINE
8
bot_flange
62
7
10
1.800000
20
-0.360000
30
0.000000
11
1.200000
21
-0.340000
31
0.000000
0
LINE
8
bot_flange
62
7
10
1.200000
20
-0.340000
30
0.000000
11
1.200000
21
-0.324000
31
0.000000
0
LINE
8
bot_flange
62
7
10
1.800000
20
-0.344000
30
0.000000
11
2.400000
21
-0.364000
31
0.000000
0
LINE
8
bot_flange
62
7
10
2.400000
20
-0.364000
30
0.000000
11
2.400000
21
-0.380000
31
0.000000
0
LINE
8
bot_flange
62
7
10
2.400000
20
-0.380000
30
0.000000
11
1.800000
21
-0.360000
31
0.000000
0
LINE
8
bot_flange
62
7
10
1.800000
20
-0.360000
30
0.000000
11
1.800000
21
-0.344000
31
0.000000
0
LINE
8
bot_flange
62
7
10
2.400000
20
-0.364000
30
0.000000
11
3.000000
21
-0.384000
31
0.000000
0
LINE
8
bot_flange
62
7
10
3.000000
20
-0.384000
30
0.000000
11
3.000000
21
-0.400000
31
0.000000
0
LINE
8
bot_flange
62
7
10
3.000000
20
-0.400000
30
0.000000
11
2.400000
21
-0.380000
31
0.000000
0
LINE
8
bot_flange
62
7
10
2.400000
20
-0.380000
30
0.000000
11
2.400000
21
-0.364000
31
0.000000
0
LINE
8
bot_flange
62
7
10
3.000000
20
-0.384000
30
0.000000
11
3.600000
21
-0.404000
31
0.000000
0
LINE
8
bot_flange
62
7
10
3.600000
20
-0.404000
30
0.000000
11
3.600000
21
-0.420000
31
0.000000
0
LINE
8
bot_flange
62
7
10
3.600000
20
-0.420000
30
0.000000
11
3.000000
21
-0.400000
31
0.000000
0
LINE
8
bot_flange
62
7
10
3.000000
20
-0.400000
30
0.000000
11
3.000000
21
-0.384000
31
0.000000
0
LINE
8
bot_flange
62
7
10
3.600000
20
-0.404000
30
0.000000
11
4.200000
21
-0.424000
31
0.000000
0
LINE
8
bot_flange
62
7
10
4.200000
20
-0.424000
30
0.000000
11
4.200000
21
-0.440000
31
0.000000
0
LINE
8
bot_flange
62
7
10
4.200000
20
-0.440000
30
0.000000
11
3.600000
21
-0.420000
31
0.000000
0
LINE
8
bot_flange
62
7
10
3.600000
20
-0.420000
30
0.000000
11
3.600000
21
-0.404000
31
0.000000
0
LINE
8
bot_flange
62
7
10
4.200000
20
-0.424000
30
0.000000
11
4.800000
21
-0.444000
31
0.000000
0
LINE
8
bot_flange
62
7
10
4.800000
20
-0.444000
30
0.000000
11
4.800000
21
-0.460000
31
0.000000
0
LINE
8
bot_flange
62
7
10
4.800000
20
-0.460000
30
0.000000
11
4.200000
21
-0.440000
31
0.000000
0
LINE
8
bot_flange
62
7
10
4.200000
20
-0.440000
30
0.000000
11
4.200000
21
-0.424000
31
0.000000
0
LINE
8
bot_flange
62
7
10
4.800000
20
-0.444000
30
0.000000
11
5.400000
21
-0.464000
31
0.000000
0
LINE
8
bot_flange
62
7
10
5.400000
20
-0.464000
30
0.000000
11
5.400000
21
-0.480000
31
0.000000
0
LINE
8
bot_flange
62
7
10
5.400000
20
-0.480000
30
0.000000
11
4.800000
21
-0.460000
31
0.000000
0
LINE
8
bot_flange
62
7
10
4.800000
20
-0.460000
30
0.000000
11
4.800000
21
-0.444000
31
0.000000
0
LINE
8
bot_flange
62
7
10
5.400000
20
-0.464000
30
0.000000
11
6.000000
21
-0.484000
31
0.000000
0
LINE
8
bot_flange
62
7
10
6.000000
20
-0.484000
30
0.000000
11
6.000000
21
-0.500000
31
0.000000
0
LINE
8
bot_flange
62
7
10
6.000000
20
-0.500000
30
0.000000
11
5.400000
21
-0.480000
31
0.000000
0
LINE
8
bot_flange
62
7
10
5.400000
20
-0.480000
30
0.000000
11
5.400000
21
-0.464000
31
0.000000
0
ENDSEC
0
EOF